<svg id="Capa_1" enable-background="new 0 0 512 512" height="32" viewBox="0 0 512 512" width="32" xmlns="http://www.w3.org/2000/svg"><g><circle cx="256" cy="256" fill="#00347b" r="256"/><path d="m512 256c0 140.31-113.37 256-256 256v-512c141.5 0 256 114.51 256 256z" fill="#002860"/><path d="m482 256c0 52-17.65 99.96-47.29 138.18-90.558 116.898-266.561 117.272-357.43 0-29.63-38.22-47.28-86.18-47.28-138.18 0-124.62 101.38-226 226-226s226 101.38 226 226z" fill="#f5f5ff"/><path d="m482 256c0 124.638-101.248 225.971-226 225.99v-451.99c124.62 0 226 101.38 226 226z" fill="#ebebff"/><path d="m434.71 394.18c-90.558 116.898-266.561 117.272-357.43 0 31.46-39.923 80.436-64.734 131.04-73.93 1.979-.352 94.685-.108 96.98.3 49.908 9.404 98.209 34.043 129.41 73.63z" fill="#3de9f2"/><path d="m434.71 394.18c-45.31 58.49-112 87.8-178.71 87.81v-161.88c3.257.009 47.156.078 50 .57 49.66 9.5 97.66 34.1 128.71 73.5z" fill="#00cef2"/><path d="m306 311.57v29.43c0 27.599-22.399 50-50 50-27.61 0-50-22.39-50-50v-29.43c30.887 19.242 69.086 19.258 100 0z" fill="#fbcdbe"/><path d="m306 311.57v29.43c0 27.6-22.4 50-50 50v-64.99c17.58 0 34.817-4.974 50-14.44z" fill="#fdbbab"/><ellipse cx="256" cy="218.5" fill="#fddbcc" rx="105" ry="112.5"/><path d="m361 218.5c0 60.831-46.147 112.5-105 112.5v-225c57.9 0 105 50.47 105 112.5z" fill="#fbcdbe"/><path d="m342 154.04c-6.02 72.76-173.33 58.38-185.65 99.93-22.568-72.515 28.089-147.97 99.65-147.97 35.54 0 67 19.01 86 48.04z" fill="#00347b"/><path d="m342 154.04c-2.91 35.15-43.46 49.97-86 60.58v-108.62c35.54 0 67 19.01 86 48.04z" fill="#002860"/></g></svg>